<?xml version="1.0" standalone="no"?>
<!DOCTYPE svg PUBLIC "-//W3C//DTD SVG 20010904//EN"
 "http://www.w3.org/TR/2001/REC-SVG-20010904/DTD/svg10.dtd">
<svg version="1.0" xmlns="http://www.w3.org/2000/svg"
 width="263.000000pt" height="263.000000pt" viewBox="0 0 263.000000 263.000000"
 preserveAspectRatio="xMidYMid meet">
<metadata>
Created by potrace 1.14, written by Peter Selinger 2001-2017
</metadata>
<g transform="translate(0.000000,263.000000) scale(0.100000,-0.100000)"
fill="#000000" stroke="none">
<path d="M1923 2514 c-215 -21 -387 -59 -603 -135 -303 -107 -394 -182 -309
-253 22 -19 42 -26 73 -26 l43 0 -38 -127 c-22 -71 -66 -234 -99 -363 -33
-129 -64 -241 -68 -248 -4 -7 -48 -30 -98 -51 -149 -61 -204 -105 -204 -161 0
-65 77 -81 194 -41 l58 21 -5 -23 c-18 -71 -104 -535 -137 -731 -24 -147 -35
-237 -30 -251 27 -72 219 -44 303 43 26 27 31 46 63 243 52 325 147 796 163
812 6 6 90 22 231 42 25 3 125 8 222 10 193 5 207 8 273 67 69 60 81 120 27
135 -57 16 -545 7 -604 -11 -7 -3 -32 -7 -55 -10 -35 -5 -43 -3 -43 9 0 46
176 699 201 746 4 9 23 19 41 22 18 3 77 15 130 26 108 24 300 47 458 56 121
7 188 32 239 91 47 53 35 111 -22 116 -76 6 -301 2 -404 -8z"/>
</g>
</svg>
