<svg version="1.0" xmlns="http://www.w3.org/2000/svg" width="350.667" height="350.667" viewBox="0 0 263 263"><path d="M192.3 11.6c-21.5 2.1-38.7 5.9-60.3 13.5-30.3 10.7-39.4 18.2-30.9 25.3 2.2 1.9 4.2 2.6 7.3 2.6h4.3l-3.8 12.7c-2.2 7.1-6.6 23.4-9.9 36.3-3.3 12.9-6.4 24.1-6.8 24.8-.4.7-4.8 3-9.8 5.1C67.5 138 62 142.4 62 148c0 6.5 7.7 8.1 19.4 4.1l5.8-2.1-.5 2.3c-1.8 7.1-10.4 53.5-13.7 73.1-2.4 14.7-3.5 23.7-3 25.1 2.7 7.2 21.9 4.4 30.3-4.3 2.6-2.7 3.1-4.6 6.3-24.3 5.2-32.5 14.7-79.6 16.3-81.2.6-.6 9-2.2 23.1-4.2 2.5-.3 12.5-.8 22.2-1 19.3-.5 20.7-.8 27.3-6.7 6.9-6 8.1-12 2.7-13.5-5.7-1.6-54.5-.7-60.4 1.1-.7.3-3.2.7-5.5 1-3.5.5-4.3.3-4.3-.9 0-4.6 17.6-69.9 20.1-74.6.4-.9 2.3-1.9 4.1-2.2 1.8-.3 7.7-1.5 13-2.6 10.8-2.4 30-4.7 45.8-5.6 12.1-.7 18.8-3.2 23.9-9.1 4.7-5.3 3.5-11.1-2.2-11.6-7.6-.6-30.1-.2-40.4.8z"/></svg>